<?xml version="1.0" encoding="utf-8"?>
<!-- Generator: Adobe Illustrator 16.0.0, SVG Export Plug-In . SVG Version: 6.00 Build 0)  -->
<!DOCTYPE svg PUBLIC "-//W3C//DTD SVG 1.1//EN" "http://www.w3.org/Graphics/SVG/1.1/DTD/svg11.dtd">
<svg version="1.1" id="Layer_1" xmlns="http://www.w3.org/2000/svg" xmlns:xlink="http://www.w3.org/1999/xlink" x="0px" y="0px"
	 width="164.429px" height="40px" viewBox="0 0 164.429 40" enable-background="new 0 0 164.429 40" xml:space="preserve">
<g>
	<path fill="#633D11" d="M28.125,0H1.875C0.84,0,0,0.84,0,1.875v36.25C0,39.16,0.84,40,1.875,40H22.5l7.5-7.5V1.875
		C30,0.84,29.16,0,28.125,0z M20.625,37.5v-5c0-1.035,0.84-1.875,1.875-1.875h5L20.625,37.5z"/>
	<g>
		<path fill="#FFFFFF" d="M4.764,11.848H2.682v-9h4.079c0.834,0,1.524,0.247,2.053,0.733C9.354,4.08,9.627,4.773,9.627,5.64
			c0,0.74-0.235,1.396-0.698,1.952c-0.486,0.58-1.215,0.873-2.167,0.873H4.764V11.848z M4.764,6.551h1.642
			c0.378,0,0.679-0.075,0.892-0.223c0.157-0.107,0.236-0.337,0.236-0.683c0-0.505-0.196-0.666-0.368-0.749
			c-0.11-0.053-0.338-0.118-0.76-0.118H4.764V6.551z"/>
		<path fill="#FFFFFF" d="M6.368,24.501H2.682v-9h3.696c1.245,0,2.229,0.459,2.924,1.366c0.6,0.791,0.903,1.804,0.903,3.011
			c0,0.919-0.175,1.764-0.519,2.514C9.054,23.771,7.906,24.501,6.368,24.501z M4.775,22.575h1.391c0.304,0,0.548-0.029,0.726-0.09
			c0.302-0.103,0.549-0.305,0.752-0.615c0.172-0.266,0.3-0.623,0.379-1.058c0.048-0.268,0.072-0.521,0.072-0.749
			c0-0.88-0.164-1.561-0.487-2.022c-0.287-0.409-0.763-0.608-1.451-0.608H4.775V22.575z"/>
		<path fill="#FFFFFF" d="M4.765,37.153H2.682v-8.999h6.55v1.979H4.765v1.43h3.928v1.953H4.765V37.153z"/>
	</g>
</g>
<g>
	<path fill="#633D11" stroke="#633D11" stroke-miterlimit="10" d="M56.253,11.762v0.72c-1.848,0.072-3.401,0.672-4.661,1.8
		c-1.261,1.128-2.131,2.58-2.61,4.356v11.808h-0.72V11.762h0.72v4.824C50.638,13.37,53.062,11.762,56.253,11.762z"/>
	<path fill="#633D11" stroke="#633D11" stroke-miterlimit="10" d="M57.226,21.158c0.072-2.616,0.906-4.883,2.502-6.804
		c1.597-1.92,3.69-2.88,6.282-2.88s4.734,0.949,6.426,2.844c1.692,1.896,2.562,4.164,2.61,6.804v0.396h-17.1
		c0.167,2.329,1.031,4.338,2.592,6.03c1.56,1.692,3.456,2.538,5.688,2.538c1.416,0,2.755-0.354,4.015-1.062
		c1.26-0.708,2.165-1.662,2.718-2.862l0.684,0.18c-0.552,1.392-1.548,2.484-2.987,3.276c-1.44,0.792-2.916,1.188-4.429,1.188
		c-2.52,0-4.649-0.984-6.39-2.952S57.226,23.654,57.226,21.158z M57.946,20.798H74.29c-0.168-2.472-1.021-4.523-2.556-6.156
		c-1.536-1.632-3.48-2.448-5.832-2.448c-1.561,0-2.952,0.438-4.177,1.314c-1.224,0.876-2.142,1.957-2.754,3.24
		C58.36,18.032,58.018,19.382,57.946,20.798z M68.674,5.102l-2.952,3.78L65.146,8.45l2.304-3.348H68.674z"/>
	<path fill="#633D11" stroke="#633D11" stroke-miterlimit="10" d="M77.422,27.854l0.54-0.468c1.943,1.8,4.127,2.7,6.552,2.7
		c1.656,0,3.126-0.366,4.41-1.098c1.283-0.732,1.926-1.83,1.926-3.294c0-0.815-0.204-1.518-0.612-2.106
		c-0.408-0.588-0.96-1.014-1.656-1.278c-1.271-0.527-2.784-0.792-4.535-0.792c-1.753,0-3.253-0.401-4.5-1.206
		c-1.249-0.804-1.872-2.094-1.872-3.87c0-1.152,0.348-2.124,1.044-2.916c1.271-1.368,3.132-2.052,5.58-2.052
		c1.512,0,2.724,0.222,3.636,0.666c0.912,0.444,1.68,1.123,2.304,2.034l-0.647,0.288c-0.769-1.512-2.533-2.268-5.292-2.268
		c-1.608,0-2.994,0.348-4.158,1.044c-1.165,0.696-1.746,1.764-1.746,3.204c0,1.08,0.317,1.962,0.954,2.646
		c0.636,0.684,1.368,1.14,2.196,1.368c0.827,0.229,1.733,0.342,2.718,0.342c0.983,0,1.877,0.084,2.682,0.252
		c0.804,0.168,1.566,0.42,2.286,0.756c1.56,0.769,2.34,2.064,2.34,3.888c0,0.888-0.222,1.68-0.666,2.376
		c-0.444,0.696-1.025,1.236-1.746,1.62c-1.368,0.744-2.916,1.116-4.644,1.116C81.753,30.806,79.389,29.822,77.422,27.854z"/>
	<path fill="#633D11" stroke="#633D11" stroke-miterlimit="10" d="M110.578,29.726v0.72c-0.409-0.023-0.727-0.174-0.954-0.45
		c-0.229-0.275-0.343-0.605-0.343-0.99v-3.312c-0.768,1.512-1.89,2.742-3.365,3.69c-1.477,0.948-3.03,1.422-4.662,1.422
		c-3.528,0-5.532-2.028-6.013-6.084c-0.071-0.744-0.107-1.571-0.107-2.484V11.762h0.72v10.476c0,3.816,0.9,6.228,2.7,7.236
		c0.72,0.409,1.62,0.612,2.7,0.612c1.848,0,3.527-0.642,5.04-1.926c1.512-1.284,2.508-2.79,2.987-4.518v-11.88h0.721v17.244
		C110.05,29.486,110.241,29.726,110.578,29.726z"/>
	<path fill="#633D11" stroke="#633D11" stroke-miterlimit="10" d="M142.222,20.042v10.404h-0.721V20.042
		c0-2.16-0.287-3.948-0.863-5.364c-0.673-1.656-2.112-2.484-4.32-2.484s-4.068,1.021-5.58,3.06c-0.624,0.864-1.116,1.884-1.476,3.06
		l-0.108,0.36v11.772h-0.72V20.042c0-2.568-0.366-4.518-1.099-5.85c-0.731-1.332-2.021-1.998-3.869-1.998
		c-1.849,0-3.42,0.63-4.717,1.89c-1.296,1.26-2.184,2.778-2.664,4.554v11.808h-0.72V11.762h0.72v4.824
		c0.792-1.608,1.824-2.862,3.097-3.762c1.271-0.9,2.7-1.35,4.284-1.35s2.867,0.522,3.852,1.566c0.983,1.044,1.548,2.334,1.692,3.87
		c1.848-3.624,4.319-5.436,7.416-5.436c1.008,0,1.877,0.18,2.609,0.54c0.732,0.36,1.296,0.81,1.692,1.35
		c0.396,0.54,0.714,1.218,0.954,2.034C142.041,16.622,142.222,18.17,142.222,20.042z"/>
	<path fill="#633D11" stroke="#633D11" stroke-miterlimit="10" d="M146.108,21.158c0.072-2.616,0.906-4.883,2.502-6.804
		c1.597-1.92,3.69-2.88,6.282-2.88s4.734,0.949,6.426,2.844c1.692,1.896,2.562,4.164,2.61,6.804v0.396h-17.1
		c0.167,2.329,1.031,4.338,2.592,6.03c1.56,1.692,3.456,2.538,5.688,2.538c1.416,0,2.755-0.354,4.015-1.062
		c1.26-0.708,2.165-1.662,2.718-2.862l0.684,0.18c-0.552,1.392-1.548,2.484-2.987,3.276c-1.44,0.792-2.916,1.188-4.429,1.188
		c-2.52,0-4.649-0.984-6.39-2.952S146.108,23.654,146.108,21.158z M146.829,20.798h16.344c-0.168-2.472-1.021-4.523-2.556-6.156
		c-1.536-1.632-3.48-2.448-5.832-2.448c-1.561,0-2.952,0.438-4.177,1.314c-1.224,0.876-2.142,1.957-2.754,3.24
		C147.243,18.032,146.9,19.382,146.829,20.798z M157.557,5.102l-2.952,3.78l-0.575-0.432l2.304-3.348H157.557z"/>
</g>
</svg>
