<?xml version="1.0" encoding="utf-8"?>
<!-- Generator: Adobe Illustrator 16.0.0, SVG Export Plug-In . SVG Version: 6.00 Build 0)  -->
<!DOCTYPE svg PUBLIC "-//W3C//DTD SVG 1.1//EN" "http://www.w3.org/Graphics/SVG/1.1/DTD/svg11.dtd">
<svg version="1.1" id="Layer_1" xmlns="http://www.w3.org/2000/svg" xmlns:xlink="http://www.w3.org/1999/xlink" x="0px" y="0px"
	 width="172.773px" height="40px" viewBox="0 0 172.773 40" enable-background="new 0 0 172.773 40" xml:space="preserve">
<path fill="#633D11" d="M20,0C8.954,0,0,8.954,0,20s8.954,20,20,20s20-8.954,20-20S31.045,0,20,0z M32.949,26.171
	c0,0.392-0.317,0.708-0.709,0.708H7.759c-0.392,0-0.709-0.316-0.709-0.708V16.033c0.988,0.821,2.086,1.72,3.217,2.621
	c0.678,0.539,1.367,1.078,2.051,1.602l-2.812,5.005l3.541-4.451c0.993,0.747,1.963,1.446,2.855,2.046
	c0.86,0.578,1.648,1.062,2.332,1.412c0.342,0.175,0.658,0.316,0.953,0.419c0.296,0.101,0.567,0.167,0.852,0.169
	c0.285-0.002,0.557-0.068,0.853-0.169c1.089-0.384,2.565-1.316,4.265-2.518c0.594-0.421,1.213-0.876,1.841-1.352l3.456,4.443
	l-2.734-4.993c1.812-1.393,3.661-2.9,5.23-4.212V26.171z M32.949,14.472c-1.542,1.298-3.455,2.878-5.358,4.36
	c-1.669,1.301-3.33,2.527-4.711,3.418c-0.69,0.445-1.311,0.807-1.813,1.048c-0.498,0.245-0.9,0.353-1.027,0.344
	c-0.068,0.002-0.236-0.026-0.455-0.103c-0.836-0.284-2.318-1.186-3.975-2.36c-2.498-1.765-5.463-4.15-7.796-6.09
	C7.55,14.87,7.296,14.657,7.05,14.452v-0.623c0-0.392,0.317-0.708,0.709-0.708h24.48c0.392,0,0.709,0.316,0.709,0.708V14.472z"/>
<g>
	<path fill="#633D11" stroke="#633D11" stroke-miterlimit="10" d="M60.22,28.783c-1.74-1.968-2.61-4.224-2.61-6.768
		s0.822-4.782,2.466-6.714c1.645-1.932,3.714-2.898,6.211-2.898c3.479,0,5.915,1.393,7.308,4.176l-0.684,0.252
		c-1.345-2.472-3.553-3.708-6.624-3.708c-2.376,0-4.297,0.918-5.761,2.754s-2.195,3.924-2.195,6.264c0,2.34,0.81,4.404,2.43,6.192
		c1.62,1.788,3.569,2.682,5.85,2.682c1.296,0,2.64-0.378,4.032-1.134c1.392-0.756,2.232-1.686,2.521-2.79l0.72,0.216
		c-0.456,1.368-1.404,2.448-2.844,3.24c-1.44,0.792-2.916,1.188-4.429,1.188C64.09,31.735,61.96,30.751,60.22,28.783z"/>
	<path fill="#633D11" stroke="#633D11" stroke-miterlimit="10" d="M85.114,31.735c-2.544-0.048-4.662-1.038-6.354-2.97
		c-1.692-1.932-2.538-4.182-2.538-6.75c0-2.568,0.869-4.812,2.609-6.732c1.74-1.92,3.864-2.88,6.372-2.88s4.603,0.997,6.282,2.988
		c1.68,1.992,2.521,4.254,2.521,6.786c0,2.533-0.864,4.747-2.593,6.642C89.686,30.715,87.585,31.687,85.114,31.735z M76.942,22.087
		c0.096,2.424,0.905,4.518,2.43,6.282c1.524,1.764,3.45,2.646,5.778,2.646s4.266-0.924,5.814-2.772
		c1.548-1.848,2.321-3.93,2.321-6.246c0-2.316-0.798-4.374-2.394-6.174c-1.597-1.8-3.546-2.7-5.851-2.7
		c-2.304,0-4.229,0.93-5.777,2.79S76.942,19.832,76.942,22.087z"/>
	<path fill="#633D11" stroke="#633D11" stroke-miterlimit="10" d="M112.582,20.971v10.404h-0.72V20.971c0-3-0.42-5.076-1.26-6.228
		c-0.792-1.08-2.052-1.62-3.78-1.62c-1.728,0-3.378,0.642-4.95,1.926c-1.572,1.284-2.598,2.79-3.078,4.518v11.808h-0.72V12.691h0.72
		v4.824c0.769-1.512,1.92-2.742,3.456-3.69s3.12-1.422,4.752-1.422c1.009,0,1.872,0.187,2.593,0.558
		c0.72,0.373,1.271,0.822,1.655,1.35c0.384,0.528,0.672,1.212,0.864,2.052C112.425,17.587,112.582,19.123,112.582,20.971z"/>
	<path fill="#633D11" stroke="#633D11" stroke-miterlimit="10" d="M124.498,29.935l0.396,0.576c-0.24,0.24-0.721,0.474-1.44,0.702
		c-0.72,0.228-1.452,0.342-2.196,0.342s-1.434-0.27-2.069-0.81c-0.637-0.54-0.954-1.23-0.954-2.07V13.411h-2.7v-0.72h2.7V6.175h0.72
		v6.516h4.5v0.72h-4.5v15.264c0.048,0.672,0.312,1.201,0.792,1.584c0.479,0.384,1.092,0.576,1.836,0.576
		S123.297,30.535,124.498,29.935z"/>
	<path fill="#633D11" stroke="#633D11" stroke-miterlimit="10" d="M141.273,30.655v0.72c-0.408-0.023-0.726-0.174-0.954-0.45
		c-0.228-0.275-0.342-0.605-0.342-0.99v-1.728c-0.912,1.176-2.076,2.058-3.492,2.646s-2.934,0.882-4.554,0.882
		s-3.012-0.552-4.176-1.656c-1.164-1.104-1.746-2.37-1.746-3.798c0-1.427,0.432-2.562,1.296-3.402
		c1.464-1.463,3.475-2.196,6.03-2.196s4.77,0.348,6.642,1.044v-2.124c0-1.92-0.558-3.479-1.674-4.68c-1.116-1.2-2.598-1.8-4.446-1.8
		c-1.848,0-3.864,0.769-6.048,2.304l-0.432-0.576c2.376-1.632,4.596-2.448,6.66-2.448c2.063,0,3.689,0.672,4.878,2.016
		c1.188,1.344,1.782,3.072,1.782,5.184v10.332C140.769,30.416,140.961,30.655,141.273,30.655z M139.437,27.703
		c0.36-0.528,0.54-1.02,0.54-1.476v-3.708c-1.92-0.744-3.9-1.116-5.939-1.116c-2.04,0-3.769,0.373-5.185,1.116
		c-1.416,0.744-2.124,1.878-2.124,3.402c0,1.524,0.528,2.754,1.584,3.69s2.316,1.404,3.78,1.404s2.88-0.282,4.248-0.846
		C137.709,29.605,138.741,28.783,139.437,27.703z"/>
	<path fill="#633D11" stroke="#633D11" stroke-miterlimit="10" d="M147.303,28.783c-1.74-1.968-2.61-4.224-2.61-6.768
		s0.822-4.782,2.466-6.714c1.645-1.932,3.714-2.898,6.211-2.898c3.479,0,5.915,1.393,7.308,4.176l-0.684,0.252
		c-1.345-2.472-3.553-3.708-6.624-3.708c-2.376,0-4.297,0.918-5.761,2.754s-2.195,3.924-2.195,6.264c0,2.34,0.81,4.404,2.43,6.192
		c1.62,1.788,3.569,2.682,5.85,2.682c1.296,0,2.64-0.378,4.032-1.134c1.392-0.756,2.232-1.686,2.521-2.79l0.72,0.216
		c-0.456,1.368-1.404,2.448-2.844,3.24c-1.44,0.792-2.916,1.188-4.429,1.188C151.173,31.735,149.043,30.751,147.303,28.783z"/>
	<path fill="#633D11" stroke="#633D11" stroke-miterlimit="10" d="M171.729,29.935l0.396,0.576c-0.24,0.24-0.721,0.474-1.44,0.702
		c-0.72,0.228-1.452,0.342-2.196,0.342s-1.434-0.27-2.069-0.81c-0.637-0.54-0.954-1.23-0.954-2.07V13.411h-2.7v-0.72h2.7V6.175h0.72
		v6.516h4.5v0.72h-4.5v15.264c0.048,0.672,0.312,1.201,0.792,1.584c0.479,0.384,1.092,0.576,1.836,0.576
		S170.529,30.535,171.729,29.935z"/>
</g>
</svg>
