<?xml version="1.0" encoding="utf-8"?>
<!-- Generator: Adobe Illustrator 16.0.0, SVG Export Plug-In . SVG Version: 6.00 Build 0)  -->
<!DOCTYPE svg PUBLIC "-//W3C//DTD SVG 1.1//EN" "http://www.w3.org/Graphics/SVG/1.1/DTD/svg11.dtd">
<svg version="1.1" id="Layer_1" xmlns="http://www.w3.org/2000/svg" xmlns:xlink="http://www.w3.org/1999/xlink" x="0px" y="0px"
	 width="147.528px" height="40px" viewBox="0 0 147.528 40" enable-background="new 0 0 147.528 40" xml:space="preserve">
<g>
	<path fill="#633D11" d="M28.125,0H1.875C0.84,0,0,0.84,0,1.875v36.25C0,39.16,0.84,40,1.875,40H22.5l7.5-7.5V1.875
		C30,0.84,29.16,0,28.125,0z M20.625,37.5v-5c0-1.035,0.84-1.875,1.875-1.875h5L20.625,37.5z"/>
	<g>
		<path fill="#FFFFFF" d="M4.764,11.848H2.682v-9H6.76c0.834,0,1.525,0.248,2.053,0.734C9.354,4.08,9.627,4.773,9.627,5.641
			c0,0.74-0.236,1.396-0.699,1.951c-0.486,0.58-1.215,0.873-2.166,0.873H4.764V11.848z M4.764,6.551h1.641
			c0.379,0,0.68-0.074,0.893-0.223c0.156-0.107,0.236-0.336,0.236-0.682c0-0.506-0.197-0.666-0.369-0.75
			c-0.109-0.053-0.338-0.117-0.76-0.117H4.764V6.551z"/>
		<path fill="#FFFFFF" d="M6.367,24.502H2.682v-9h3.695c1.246,0,2.23,0.459,2.924,1.365c0.6,0.791,0.904,1.805,0.904,3.012
			c0,0.918-0.176,1.764-0.52,2.514C9.053,23.771,7.906,24.502,6.367,24.502z M4.775,22.576h1.391c0.303,0,0.547-0.029,0.725-0.09
			c0.303-0.104,0.549-0.305,0.752-0.615c0.172-0.266,0.301-0.623,0.379-1.059c0.049-0.268,0.072-0.52,0.072-0.748
			c0-0.881-0.164-1.561-0.486-2.023c-0.287-0.408-0.764-0.607-1.451-0.607H4.775V22.576z"/>
		<path fill="#FFFFFF" d="M4.764,37.154H2.682v-9H9.23v1.98H4.764v1.43h3.928v1.953H4.764V37.154z"/>
	</g>
</g>
<path fill="#633D11" stroke="#633D11" stroke-miterlimit="10" d="M50.22,26.854c-1.74-1.968-2.61-4.224-2.61-6.769
	c0-2.543,0.822-4.781,2.466-6.714c1.645-1.932,3.714-2.897,6.211-2.897c3.479,0,5.915,1.393,7.308,4.176l-0.684,0.252
	c-1.345-2.472-3.553-3.708-6.624-3.708c-2.376,0-4.297,0.918-5.761,2.754s-2.195,3.924-2.195,6.265c0,2.34,0.81,4.404,2.43,6.191
	c1.62,1.788,3.569,2.682,5.85,2.682c1.296,0,2.64-0.377,4.032-1.134c1.392-0.756,2.232-1.686,2.521-2.79l0.72,0.217
	c-0.456,1.367-1.404,2.447-2.844,3.239c-1.44,0.792-2.916,1.188-4.429,1.188C54.09,29.807,51.96,28.822,50.22,26.854z"/>
<path fill="#633D11" stroke="#633D11" stroke-miterlimit="10" d="M68.021,29.446h-0.72v-2.304h0.72V29.446z"/>
<path fill="#633D11" stroke="#633D11" stroke-miterlimit="10" d="M84.965,29.446h-0.647l-8.136-18.685h0.792l7.668,17.641
	l7.668-17.641h0.792L84.965,29.446z"/>
<path fill="#633D11" stroke="#633D11" stroke-miterlimit="10" d="M96.664,5.938h-0.72V3.635h0.72V5.938z M96.664,29.446h-0.72
	V10.834h0.72V29.446z"/>
<path fill="#633D11" stroke="#633D11" stroke-miterlimit="10" d="M109.049,28.006l0.396,0.576c-0.24,0.24-0.72,0.475-1.439,0.702
	c-0.721,0.228-1.453,0.343-2.196,0.343c-0.744,0-1.435-0.271-2.07-0.811s-0.954-1.23-0.954-2.07V11.482h-2.7v-0.721h2.7V4.246h0.721
	v6.516h4.5v0.721h-4.5v15.264c0.047,0.672,0.312,1.201,0.792,1.584c0.479,0.385,1.092,0.576,1.836,0.576
	C106.876,28.906,107.848,28.606,109.049,28.006z"/>
<path fill="#633D11" stroke="#633D11" stroke-miterlimit="10" d="M125.824,28.727v0.72c-0.408-0.023-0.727-0.174-0.954-0.45
	c-0.229-0.275-0.342-0.605-0.342-0.99v-1.728c-0.913,1.177-2.076,2.058-3.492,2.646s-2.934,0.883-4.554,0.883
	s-3.013-0.553-4.177-1.656s-1.745-2.37-1.745-3.799c0-1.427,0.432-2.561,1.296-3.401c1.463-1.464,3.474-2.196,6.029-2.196
	c2.557,0,4.771,0.349,6.643,1.045v-2.125c0-1.92-0.559-3.479-1.674-4.68c-1.116-1.199-2.599-1.8-4.446-1.8
	c-1.849,0-3.864,0.769-6.048,2.304l-0.433-0.576c2.376-1.631,4.596-2.447,6.66-2.447s3.69,0.672,4.878,2.016
	c1.188,1.344,1.782,3.072,1.782,5.184v10.332C125.32,28.486,125.512,28.727,125.824,28.727z M123.988,25.774
	c0.359-0.528,0.54-1.021,0.54-1.476V20.59c-1.921-0.743-3.9-1.115-5.94-1.115s-3.768,0.372-5.184,1.115
	c-1.417,0.744-2.124,1.879-2.124,3.402c0,1.524,0.527,2.754,1.584,3.689c1.056,0.937,2.315,1.404,3.78,1.404
	c1.463,0,2.88-0.281,4.248-0.846C122.26,27.677,123.292,26.854,123.988,25.774z"/>
<path fill="#633D11" stroke="#633D11" stroke-miterlimit="10" d="M129.208,20.158c0.072-2.615,0.905-4.883,2.502-6.804
	c1.596-1.92,3.69-2.88,6.282-2.88s4.733,0.948,6.426,2.844c1.692,1.896,2.562,4.164,2.61,6.804v0.396h-17.101
	c0.168,2.329,1.032,4.339,2.592,6.031c1.561,1.691,3.456,2.537,5.688,2.537c1.416,0,2.754-0.354,4.014-1.062
	c1.261-0.708,2.166-1.661,2.719-2.862l0.684,0.18c-0.553,1.393-1.548,2.484-2.988,3.276c-1.439,0.792-2.916,1.188-4.428,1.188
	c-2.521,0-4.65-0.984-6.39-2.952C130.077,24.887,129.208,22.654,129.208,20.158z M129.928,19.799h16.344
	c-0.168-2.473-1.02-4.523-2.556-6.156s-3.48-2.448-5.832-2.448c-1.561,0-2.952,0.438-4.176,1.313
	c-1.224,0.877-2.142,1.957-2.754,3.24C130.342,17.033,130,18.383,129.928,19.799z"/>
</svg>
