<?xml version="1.0" encoding="utf-8"?>
<!-- Generator: Adobe Illustrator 16.0.0, SVG Export Plug-In . SVG Version: 6.00 Build 0)  -->
<!DOCTYPE svg PUBLIC "-//W3C//DTD SVG 1.1//EN" "http://www.w3.org/Graphics/SVG/1.1/DTD/svg11.dtd">
<svg version="1.1" id="Layer_1" xmlns="http://www.w3.org/2000/svg" xmlns:xlink="http://www.w3.org/1999/xlink" x="0px" y="0px"
	 width="151.316px" height="151.316px" viewBox="0 0 151.316 151.316" enable-background="new 0 0 151.316 151.316"
	 xml:space="preserve">
<g>
	<g>
		<path fill="#633D11" d="M126.844,113.916c0,0-0.118-0.309-0.329-0.845c-1.038-3.208-4.284-13.075-5.566-15.33
			c-1.537-2.705-2.435-5.794-8.329-7.082c-2.29-0.499-5.624-1.078-8.914-1.665c-3.624-0.78-7.719-1.649-10.2-2.191
			c-0.365-0.136-1.411-0.266-1.535-0.392c-0.654-0.655-1.203-3.367-1.897-5.248c17.039,4.799,26.664-4.043,27.033-7.89
			c-3.705,0.931-15.675,1.109-14.787-14.235c0.323-5.587-1.042-17.176-4.516-26.016C91.996,18.24,79.856,18.947,77.655,18.947
			c-0.266,0-0.631,0.007-1.079,0.042c-0.448-0.035-0.813-0.042-1.078-0.042c-2.201,0-14.34-0.707-20.147,14.075
			c-3.474,8.84-4.841,20.429-4.517,26.016c0.888,15.344-11.082,14.771-14.788,13.838c0.816,3.666,9.923,14.257,27.606,8.574
			c-0.698,1.927-1.269,4.291-1.936,4.96c-0.123,0.126-1.17,0.256-1.536,0.392c-2.479,0.542-6.575,1.411-10.2,2.191
			c-3.29,0.587-6.623,1.166-8.913,1.665c-5.895,1.288-6.791,4.377-8.33,7.082c-1.282,2.255-4.525,12.12-5.567,15.33
			c-0.21,0.536-0.327,0.845-0.327,0.845s0.013,0.02,0.038,0.053c-0.024,0.074-0.038,0.118-0.038,0.118
			c0.981,0.987,3.93,4.551,6.235,4.551c0.132,0,0.522,0.002,1.125,0.006c2.391,0.33,22.444,0.336,42.639,0.256
			c20.196,0.08,40.247,0.074,42.639-0.256c0.6-0.004,0.992-0.006,1.124-0.006c2.306,0,5.255-3.563,6.237-4.551
			c0,0-0.016-0.044-0.039-0.118C126.829,113.935,126.844,113.916,126.844,113.916z"/>
	</g>
	<circle fill="none" stroke="#633D11" stroke-width="4" stroke-miterlimit="10" cx="75.658" cy="75.658" r="73.658"/>
</g>
</svg>
