<?xml version="1.0" encoding="utf-8"?>
<!-- Generator: Adobe Illustrator 16.0.0, SVG Export Plug-In . SVG Version: 6.00 Build 0)  -->
<!DOCTYPE svg PUBLIC "-//W3C//DTD SVG 1.1//EN" "http://www.w3.org/Graphics/SVG/1.1/DTD/svg11.dtd">
<svg version="1.1" id="Layer_1" xmlns="http://www.w3.org/2000/svg" xmlns:xlink="http://www.w3.org/1999/xlink" x="0px" y="0px"
	 width="151.315px" height="151.316px" viewBox="0 0 151.315 151.316" enable-background="new 0 0 151.315 151.316"
	 xml:space="preserve">
<g>
	<path fill="#633D11" d="M111.499,80.676c0.094-1.575,0.009-2.388-0.075-3.95l-3.103,0.109L79.309,88.193
		c-1.803,0.633-2.799,0.781-5.783-0.095L42.981,76.584l-3.358,0.131c-0.125,4.147,0.081,7.831-0.198,12.225
		c-0.067,1.071,0.04,8.342-0.125,9.405c-0.509,3.308,2.095,2.358,1.152,2.303c17.052,0.988,28.072,11.355,36.596,12.293
		c7.095,0.78,11.354-12.171,27.933-12.171c3.606,0,6.54,0.926,6.525-2.45C111.487,94.477,111.27,84.448,111.499,80.676z
		 M102.952,97.864c-13.599,1.218-18.444,5.756-27.279,12.091c12.83-27.206,32.797-29.804,32.797-29.804
		c-0.036,3.466,0.229,11.823,0.243,15.346C108.726,98.763,106.429,97.556,102.952,97.864z"/>
	<path fill="#633D11" d="M121.623,74.062c-0.36-0.151-0.756-0.233-1.173-0.233c-0.335,0-0.654,0.054-0.956,0.151
		c-1.221,0.403-2.104,1.551-2.104,2.906c0,1.687,1.371,3.057,3.06,3.057s3.059-1.37,3.059-3.057
		C123.509,75.612,122.731,74.524,121.623,74.062z"/>
	<path fill="#633D11" d="M120.783,100.386c-0.06-7.526-0.359-10.249-0.511-11.688h-2.693c-0.331,1.417-1.044,4.316-0.942,11.74
		c0.142,10.206-1.659,11.611-1.132,12.085l3.976,0.294C119.229,112.729,120.863,110.637,120.783,100.386z"/>
	<path fill="#633D11" d="M124.809,100.167c-0.099-7.532-0.671-10.138-0.946-11.47h-0.483c0.151,1.395,0.447,4.115,0.169,10.51
		c-0.438,10.045,0.511,13.172,0.795,13.627c0.974-0.058,1.708-0.159,1.89-0.312C126.866,111.994,124.958,111.135,124.809,100.167z"
		/>
	<path fill="#633D11" d="M117.433,84.108c0,0.016,0.002,0.026,0.005,0.039c0.016,0.211,0.195,1.504,0.409,1.504h5.202
		c0.217,0,0.393-1.293,0.411-1.504c0-0.013,0.006-0.023,0.006-0.039c0-0.227-0.188-1.445-0.417-1.445h-5.202
		C117.618,82.663,117.433,83.882,117.433,84.108z"/>
	<path fill="#633D11" d="M138.351,57.987L79.082,37.965c-1.439-0.323-2.655-0.354-4.353,0.071L15.61,58.929
		c-0.345,0.343-0.466,0.823-0.365,1.257c0.053,0.23,0.165,0.445,0.344,0.619l57.949,21.393c2.983,0.871,3.981,0.728,5.783,0.095
		l35.22-13.184c-2.879-0.746-13.557-7.432-32.295-7.561c0.007,0.061,0.016,0.121,0.016,0.182c0,1.708-2.434,3.095-5.437,3.095
		c-3.001,0-5.437-1.387-5.437-3.095c0-1.706,2.436-3.092,5.437-3.092c0.372,0,0.734,0.021,1.085,0.062
		c18.675-0.96,41.065,5.793,45.677,6.378l14.739-5.21c0.192-0.195,0.314-0.431,0.368-0.675
		C138.789,58.768,138.673,58.314,138.351,57.987z"/>
	<path fill="#F3EEE2" d="M103.286,98.147c-13.909,1.248-18.864,5.887-27.901,12.369c13.124-27.829,33.354-30.583,33.354-30.583
		c0.346,3.544,0.425,12.189,0.439,15.792C109.191,99.066,106.842,97.831,103.286,98.147z"/>
	<circle fill="none" stroke="#633D11" stroke-width="4" stroke-miterlimit="10" cx="75.658" cy="75.658" r="73.658"/>
</g>
</svg>
