<?xml version="1.0" encoding="utf-8"?>
<!-- Generator: Adobe Illustrator 16.0.0, SVG Export Plug-In . SVG Version: 6.00 Build 0)  -->
<!DOCTYPE svg PUBLIC "-//W3C//DTD SVG 1.1//EN" "http://www.w3.org/Graphics/SVG/1.1/DTD/svg11.dtd">
<svg version="1.1" id="Layer_1" xmlns="http://www.w3.org/2000/svg" xmlns:xlink="http://www.w3.org/1999/xlink" x="0px" y="0px"
	 width="103.331px" height="36.52px" viewBox="0 0 103.331 36.52" enable-background="new 0 0 103.331 36.52" xml:space="preserve">
<g>
	<path fill="#633D11" stroke="#633D11" stroke-miterlimit="10" d="M25.148,34.147l10.272-23.52h1.056L25.581,35.54h-0.864
		l-6.096-13.968L12.524,35.54h-0.863L0.765,10.628H1.82l10.272,23.52l6-13.775l-4.176-9.648h1.008l3.696,8.4l3.695-8.4h1.009
		l-4.177,9.648L25.148,34.147z"/>
	<path fill="#633D11" stroke="#633D11" stroke-miterlimit="10" d="M50.013,36.02c-3.393-0.064-6.217-1.384-8.473-3.96
		c-2.256-2.575-3.384-5.575-3.384-9c0-3.424,1.159-6.415,3.48-8.976c2.319-2.56,5.151-3.84,8.496-3.84
		c3.343,0,6.136,1.328,8.376,3.983c2.239,2.657,3.359,5.673,3.359,9.048c0,3.377-1.151,6.329-3.456,8.856
		C56.108,34.66,53.308,35.955,50.013,36.02z M39.116,23.156c0.128,3.232,1.208,6.023,3.24,8.376c2.031,2.352,4.6,3.527,7.704,3.527
		c3.104,0,5.688-1.231,7.752-3.695c2.063-2.464,3.096-5.24,3.096-8.328s-1.064-5.832-3.191-8.232c-2.129-2.4-4.729-3.6-7.801-3.6
		c-3.071,0-5.64,1.24-7.704,3.72C40.148,17.404,39.116,20.148,39.116,23.156z"/>
	<path fill="#633D11" stroke="#633D11" stroke-miterlimit="10" d="M77.948,10.628v0.96c-2.465,0.096-4.536,0.896-6.216,2.4
		c-1.681,1.504-2.841,3.439-3.48,5.808V35.54h-0.96V10.628h0.96v6.432C70.46,12.772,73.692,10.628,77.948,10.628z"/>
	<path fill="#633D11" stroke="#633D11" stroke-miterlimit="10" d="M102.284,35.54h-1.152L90.524,21.284l-6.769,6.144v8.112h-0.96
		V0.5h0.96v25.632l16.992-15.408h1.296l-10.8,9.888L102.284,35.54z"/>
</g>
</svg>
