<?xml version="1.0" encoding="utf-8"?>
<!-- Generator: Adobe Illustrator 16.0.0, SVG Export Plug-In . SVG Version: 6.00 Build 0)  -->
<!DOCTYPE svg PUBLIC "-//W3C//DTD SVG 1.1//EN" "http://www.w3.org/Graphics/SVG/1.1/DTD/svg11.dtd">
<svg version="1.1" id="Layer_1" xmlns="http://www.w3.org/2000/svg" xmlns:xlink="http://www.w3.org/1999/xlink" x="0px" y="0px"
	 width="59.656px" height="36.52px" viewBox="0 0 59.656 36.52" enable-background="new 0 0 59.656 36.52" xml:space="preserve">
<g>
	<path fill="#633D11" stroke="#633D11" stroke-miterlimit="10" d="M23.204,23.156c-0.096,3.456-1.296,6.464-3.6,9.024
		c-2.304,2.561-5.104,3.84-8.4,3.84c-1.92,0-3.768-0.536-5.544-1.608c-1.776-1.072-3.176-2.424-4.2-4.056v5.184H0.5V0.5h0.96v15.936
		c2.911-4.128,6.304-6.192,10.176-6.192c3.456,0,6.248,1.32,8.376,3.96C22.14,16.844,23.204,19.828,23.204,23.156z M19.052,31.412
		c2.128-2.432,3.192-5.208,3.192-8.328s-1.008-5.88-3.024-8.28c-2.016-2.4-4.544-3.6-7.584-3.6c-2.24,0-4.241,0.688-6,2.064
		c-1.76,1.376-3.152,3.104-4.176,5.184v8.976c0,1.92,1.104,3.672,3.312,5.256s4.351,2.376,6.432,2.376
		C14.308,35.06,16.924,33.844,19.052,31.412z"/>
	<path fill="#633D11" stroke="#633D11" stroke-miterlimit="10" d="M29.78,4.196h-0.96V1.124h0.96V4.196z M29.78,35.54h-0.96V10.724
		h0.96V35.54z"/>
	<path fill="#633D11" stroke="#633D11" stroke-miterlimit="10" d="M47.3,36.02c-3.392-0.064-6.216-1.384-8.472-3.96
		c-2.256-2.576-3.384-5.576-3.384-9c0-3.424,1.16-6.416,3.48-8.976c2.32-2.56,5.152-3.84,8.496-3.84
		c3.343,0,6.136,1.328,8.376,3.984c2.24,2.657,3.36,5.672,3.36,9.048c0,3.376-1.152,6.329-3.456,8.856
		C53.396,34.66,50.595,35.956,47.3,36.02z M36.404,23.156c0.127,3.232,1.208,6.024,3.24,8.376c2.032,2.352,4.6,3.528,7.704,3.528
		c3.104,0,5.688-1.231,7.752-3.696c2.064-2.464,3.096-5.24,3.096-8.328c0-3.088-1.064-5.832-3.192-8.232
		c-2.128-2.4-4.728-3.6-7.8-3.6c-3.072,0-5.64,1.24-7.704,3.72C37.436,17.404,36.404,20.148,36.404,23.156z"/>
</g>
</svg>
