<?xml version="1.0" encoding="utf-8"?>
<!-- Generator: Adobe Illustrator 16.0.0, SVG Export Plug-In . SVG Version: 6.00 Build 0)  -->
<!DOCTYPE svg PUBLIC "-//W3C//DTD SVG 1.1//EN" "http://www.w3.org/Graphics/SVG/1.1/DTD/svg11.dtd">
<svg version="1.1" id="Layer_1" xmlns="http://www.w3.org/2000/svg" xmlns:xlink="http://www.w3.org/1999/xlink" x="0px" y="0px"
	 width="84.636px" height="36.521px" viewBox="0 0 84.636 36.521" enable-background="new 0 0 84.636 36.521" xml:space="preserve">
<circle fill="#633D11" stroke="#633D11" stroke-miterlimit="10" cx="2.13" cy="33.977" r="1.63"/>
<path fill="#633D11" stroke="#633D11" stroke-miterlimit="10" d="M6.953,23.156c0.096-3.487,1.208-6.512,3.336-9.072
	c2.128-2.56,4.92-3.84,8.376-3.84s6.312,1.265,8.568,3.792c2.256,2.528,3.416,5.552,3.48,9.072v0.527h-22.8
	c0.224,3.104,1.375,5.784,3.456,8.04c2.08,2.256,4.608,3.384,7.584,3.384c1.888,0,3.672-0.472,5.352-1.416
	c1.68-0.943,2.887-2.215,3.624-3.815l0.912,0.24c-0.736,1.855-2.064,3.312-3.984,4.368c-1.92,1.056-3.888,1.584-5.904,1.584
	c-3.36,0-6.2-1.312-8.52-3.937C8.112,29.461,6.953,26.484,6.953,23.156z M7.913,22.676h21.792c-0.224-3.295-1.36-6.031-3.408-8.208
	c-2.048-2.176-4.64-3.264-7.776-3.264c-2.081,0-3.936,0.584-5.568,1.752c-1.632,1.169-2.856,2.608-3.672,4.32
	C8.464,18.988,8.009,20.788,7.913,22.676z"/>
<path fill="#633D11" stroke="#633D11" stroke-miterlimit="10" d="M57.401,34.58v0.96c-0.545-0.031-0.968-0.231-1.272-0.6
	s-0.456-0.809-0.456-1.32v-3.264c-1.056,1.664-2.48,3.023-4.272,4.08c-1.793,1.056-3.617,1.584-5.472,1.584
	c-3.36,0-6.2-1.312-8.52-3.937c-2.32-2.623-3.48-5.64-3.48-9.048s1.111-6.392,3.336-8.952c2.224-2.56,4.968-3.84,8.232-3.84
	c3.904,0,7.296,2.063,10.176,6.192V0.5h0.96v33.12C56.696,34.261,56.952,34.58,57.401,34.58z M55.673,27.428v-8.976
	c-0.672-1.983-2.024-3.688-4.056-5.112c-2.033-1.423-4.073-2.136-6.12-2.136c-3.104,0-5.648,1.208-7.632,3.624
	c-1.984,2.416-2.976,5.2-2.976,8.352c0,3.152,1.08,5.921,3.24,8.305c2.16,2.384,4.76,3.575,7.8,3.575c1.312,0,2.712-0.343,4.2-1.031
	c1.488-0.688,2.776-1.64,3.864-2.856C55.08,29.956,55.641,28.708,55.673,27.428z"/>
<path fill="#633D11" stroke="#633D11" stroke-miterlimit="10" d="M84.135,34.58v0.96c-0.544-0.031-0.968-0.231-1.271-0.6
	c-0.305-0.368-0.456-0.809-0.456-1.32v-4.416c-1.024,2.016-2.521,3.656-4.487,4.92c-1.969,1.265-4.041,1.896-6.216,1.896
	c-4.704,0-7.376-2.704-8.016-8.112c-0.096-0.991-0.144-2.096-0.144-3.312V10.628h0.96v13.968c0,5.088,1.2,8.305,3.6,9.648
	c0.96,0.544,2.16,0.815,3.6,0.815c2.463,0,4.704-0.855,6.72-2.567c2.016-1.712,3.344-3.72,3.983-6.024v-15.84h0.96V33.62
	C83.432,34.261,83.688,34.58,84.135,34.58z"/>
</svg>
