<?xml version="1.0" encoding="utf-8"?>
<!-- Generator: Adobe Illustrator 16.0.0, SVG Export Plug-In . SVG Version: 6.00 Build 0)  -->
<!DOCTYPE svg PUBLIC "-//W3C//DTD SVG 1.1//EN" "http://www.w3.org/Graphics/SVG/1.1/DTD/svg11.dtd">
<svg version="1.1" id="Layer_1" xmlns="http://www.w3.org/2000/svg" xmlns:xlink="http://www.w3.org/1999/xlink" x="0px" y="0px"
	 width="405.381px" height="61px" viewBox="0 0 405.381 61" enable-background="new 0 0 405.381 61" xml:space="preserve">
<g>
	<path stroke="#633D11" stroke-miterlimit="10" d="M2.795,44.353c0.695,0.819,1.59,1.229,2.68,1.229s2.388-0.193,3.902-0.571
		l0.564,1.197c-0.124,0.124-0.734,0.254-1.823,0.378c-1.09,0.124-1.971,0.193-2.643,0.193c-1.514,0-2.719-0.509-3.623-1.514
		C0.948,44.259,0.5,43.04,0.5,41.61V0.5h1.259v41.11C1.759,42.622,2.107,43.534,2.795,44.353z"/>
	<path stroke="#633D11" stroke-miterlimit="10" d="M12.15,30.215c0.124-4.574,1.583-8.538,4.373-11.898
		c2.789-3.354,6.451-5.037,10.986-5.037c4.535,0,8.282,1.661,11.234,4.975c2.966,3.315,4.48,7.286,4.566,11.898v0.695h-29.9
		c0.293,4.072,1.8,7.586,4.528,10.546c2.727,2.959,6.049,4.435,9.951,4.435c2.473,0,4.813-0.618,7.016-1.854
		c2.209-1.236,3.792-2.905,4.759-5.006l1.19,0.316c-0.959,2.434-2.704,4.342-5.223,5.726c-2.519,1.39-5.099,2.078-7.742,2.078
		c-4.411,0-8.135-1.715-11.179-5.161C13.665,38.489,12.15,34.58,12.15,30.215z M13.41,29.588h28.579
		c-0.293-4.326-1.785-7.911-4.466-10.77c-2.688-2.851-6.088-4.28-10.205-4.28c-2.728,0-5.161,0.765-7.301,2.302
		c-2.14,1.53-3.747,3.416-4.813,5.663C14.128,24.752,13.534,27.108,13.41,29.588z"/>
	<path stroke="#633D11" stroke-miterlimit="10" d="M47.466,41.927l0.942-0.819c3.4,3.151,7.223,4.721,11.458,4.721
		c2.897,0,5.47-0.641,7.718-1.917c2.24-1.282,3.368-3.206,3.368-5.763c0-1.429-0.356-2.65-1.073-3.685
		c-0.711-1.027-1.677-1.77-2.897-2.233c-2.226-0.919-4.868-1.383-7.928-1.383c-3.066,0-5.693-0.703-7.872-2.109
		c-2.186-1.406-3.275-3.662-3.275-6.768c0-2.016,0.609-3.716,1.83-5.099c2.218-2.395,5.471-3.592,9.758-3.592
		c2.642,0,4.759,0.394,6.358,1.166c1.592,0.781,2.936,1.963,4.026,3.555l-1.136,0.509c-1.338-2.649-4.428-3.97-9.249-3.97
		c-2.812,0-5.239,0.61-7.277,1.831c-2.033,1.213-3.052,3.083-3.052,5.601c0,1.886,0.556,3.43,1.669,4.628
		c1.111,1.197,2.394,1.994,3.839,2.388c1.452,0.401,3.036,0.602,4.752,0.602c1.723,0,3.29,0.147,4.697,0.44
		c1.406,0.293,2.735,0.734,3.995,1.321c2.727,1.345,4.094,3.609,4.094,6.799c0,1.553-0.394,2.936-1.167,4.156
		c-0.78,1.221-1.792,2.164-3.052,2.835c-2.395,1.298-5.099,1.947-8.127,1.947C55.044,47.088,50.911,45.373,47.466,41.927z"/>
	<path stroke="#633D11" stroke-miterlimit="10" d="M81.437,44.353c0.688,0.819,1.583,1.229,2.673,1.229s2.395-0.193,3.902-0.571
		l0.564,1.197c-0.124,0.124-0.734,0.254-1.824,0.378s-1.971,0.193-2.643,0.193c-1.514,0-2.72-0.509-3.623-1.514
		c-0.904-1.005-1.353-2.225-1.353-3.654V0.5h1.259v41.11C80.394,42.622,80.742,43.534,81.437,44.353z"/>
	<path stroke="#633D11" stroke-miterlimit="10" d="M90.785,30.215c0.124-4.574,1.583-8.538,4.374-11.898
		c2.789-3.354,6.451-5.037,10.986-5.037c4.535,0,8.282,1.661,11.241,4.975c2.959,3.315,4.48,7.286,4.559,11.898v0.695h-29.9
		c0.293,4.072,1.8,7.586,4.528,10.546c2.727,2.959,6.049,4.435,9.951,4.435c2.473,0,4.813-0.618,7.022-1.854
		c2.202-1.236,3.785-2.905,4.752-5.006l1.197,0.316c-0.966,2.434-2.711,4.342-5.229,5.726c-2.519,1.39-5.099,2.078-7.742,2.078
		c-4.411,0-8.135-1.715-11.179-5.161C92.307,38.489,90.785,34.58,90.785,30.215z M92.044,29.588h28.579
		c-0.293-4.326-1.785-7.911-4.466-10.77c-2.688-2.851-6.088-4.28-10.198-4.28c-2.735,0-5.168,0.765-7.308,2.302
		c-2.14,1.53-3.747,3.416-4.813,5.663C92.764,24.752,92.169,27.108,92.044,29.588z"/>
	<path stroke="#633D11" stroke-miterlimit="10" d="M153.111,13.781h1.383L135.04,58.167l-0.44,0.756
		c-0.626,1.05-2.033,1.576-4.219,1.576v-1.259c1.515,0,2.502-0.232,2.959-0.695c0.254-0.294,2.078-4.319,5.478-12.084l-15.174-32.68
		h1.39l14.417,31.104L153.111,13.781z"/>
	<path stroke="#633D11" stroke-miterlimit="10" d="M200.077,28.267v18.195h-1.259V28.267c0-5.245-0.734-8.877-2.202-10.893
		c-1.383-1.893-3.585-2.835-6.613-2.835c-3.021,0-5.904,1.127-8.653,3.368c-2.751,2.249-4.543,4.883-5.385,7.903v20.651h-1.26
		v-32.68h1.26v8.437c1.344-2.643,3.36-4.791,6.049-6.452c2.681-1.653,5.454-2.487,8.306-2.487c1.761,0,3.275,0.324,4.535,0.98
		c1.259,0.649,2.225,1.438,2.897,2.357c0.671,0.927,1.174,2.117,1.507,3.592C199.806,22.349,200.077,25.03,200.077,28.267z"/>
	<path stroke="#633D11" stroke-miterlimit="10" d="M206.875,30.215c0.13-4.574,1.583-8.538,4.38-11.898
		c2.789-3.354,6.451-5.037,10.986-5.037c4.528,0,8.275,1.661,11.234,4.975c2.959,3.315,4.48,7.286,4.566,11.898v0.695h-29.907
		c0.293,4.072,1.807,7.586,4.535,10.546c2.727,2.959,6.042,4.435,9.951,4.435c2.472,0,4.813-0.618,7.016-1.854
		c2.202-1.236,3.785-2.905,4.759-5.006l1.19,0.316c-0.966,2.434-2.705,4.342-5.223,5.726c-2.519,1.39-5.099,2.078-7.741,2.078
		c-4.411,0-8.135-1.715-11.179-5.161C208.397,38.489,206.875,34.58,206.875,30.215z M208.134,29.588h28.586
		c-0.294-4.326-1.785-7.911-4.473-10.77c-2.682-2.851-6.081-4.28-10.198-4.28c-2.728,0-5.161,0.765-7.301,2.302
		c-2.14,1.53-3.747,3.416-4.813,5.663C208.86,24.752,208.265,27.108,208.134,29.588z"/>
	<path stroke="#633D11" stroke-miterlimit="10" d="M271.85,44.631l13.474-30.85h1.383l-14.293,32.68h-1.128l-7.997-18.325
		l-7.996,18.325h-1.136l-14.293-32.68h1.391l13.474,30.85l7.866-18.063l-5.478-12.655h1.321l4.851,11.017l4.845-11.017h1.321
		l-5.471,12.655L271.85,44.631z"/>
	<path stroke="#633D11" stroke-miterlimit="10" d="M338.4,28.267v18.195h-1.259V28.267c0-3.778-0.509-6.906-1.514-9.379
		c-1.175-2.897-3.693-4.349-7.556-4.349c-3.863,0-7.115,1.785-9.758,5.354c-1.09,1.507-1.954,3.292-2.581,5.354l-0.186,0.626v20.589
		h-1.261V28.267c0-4.496-0.64-7.903-1.921-10.236c-1.283-2.326-3.539-3.492-6.768-3.492c-3.23,0-5.98,1.104-8.251,3.306
		c-2.264,2.202-3.817,4.86-4.659,7.965v20.651h-1.26v-32.68h1.26v8.437c1.39-2.812,3.19-5,5.416-6.576
		c2.225-1.576,4.721-2.363,7.494-2.363c2.767,0,5.013,0.912,6.736,2.742c1.723,1.823,2.705,4.08,2.959,6.768
		c3.229-6.342,7.556-9.51,12.971-9.51c1.762,0,3.284,0.316,4.559,0.942c1.283,0.633,2.271,1.421,2.959,2.364
		c0.695,0.943,1.251,2.133,1.669,3.555C338.084,22.287,338.4,24.991,338.4,28.267z"/>
	<path stroke="#633D11" stroke-miterlimit="10" d="M371.39,45.202v1.259c-0.718-0.045-1.274-0.308-1.668-0.788
		c-0.402-0.486-0.603-1.059-0.603-1.731v-3.021c-1.592,2.056-3.631,3.593-6.104,4.628c-2.48,1.027-5.13,1.538-7.966,1.538
		c-2.834,0-5.269-0.966-7.301-2.897c-2.04-1.924-3.059-4.142-3.059-6.637c0-2.502,0.757-4.481,2.271-5.949
		c2.557-2.564,6.073-3.84,10.546-3.84c4.466,0,8.343,0.603,11.612,1.824v-3.716c0-3.361-0.973-6.088-2.928-8.183
		c-1.947-2.101-4.543-3.151-7.772-3.151c-3.23,0-6.761,1.344-10.577,4.032l-0.757-1.012c4.156-2.851,8.035-4.28,11.65-4.28
		c3.608,0,6.451,1.174,8.529,3.53c2.078,2.35,3.114,5.37,3.114,9.063v18.07C370.509,44.786,370.842,45.202,371.39,45.202z
		 M368.177,40.041c0.633-0.926,0.942-1.784,0.942-2.587v-6.483c-3.354-1.297-6.822-1.947-10.384-1.947c-3.57,0-6.59,0.65-9.07,1.947
		c-2.473,1.305-3.715,3.284-3.715,5.949c0,2.666,0.926,4.82,2.773,6.451c1.846,1.638,4.049,2.457,6.613,2.457
		c2.557,0,5.037-0.494,7.425-1.476C365.156,43.364,366.956,41.927,368.177,40.041z"/>
	<path stroke="#633D11" stroke-miterlimit="10" d="M404.881,28.267v18.195h-1.258V28.267c0-5.245-0.735-8.877-2.204-10.893
		c-1.387-1.893-3.59-2.835-6.61-2.835c-3.022,0-5.911,1.127-8.654,3.368c-2.751,2.249-4.55,4.883-5.385,7.903v20.651h-1.26v-32.68
		h1.26v8.437c1.344-2.643,3.354-4.791,6.042-6.452c2.688-1.653,5.454-2.487,8.312-2.487c1.762,0,3.275,0.324,4.532,0.98
		c1.258,0.649,2.221,1.438,2.895,2.357c0.67,0.927,1.176,2.117,1.514,3.592C404.61,22.349,404.881,25.03,404.881,28.267z"/>
</g>
</svg>
